<?xml version="1.0" encoding="UTF-8" standalone="no"?>
<!-- Created with Inkscape (http://www.inkscape.org/) -->

<svg
   width="140.08965mm"
   height="140.09056mm"
   viewBox="0 0 140.08965 140.09056"
   version="1.1"
   id="svg911"
   xmlns="http://www.w3.org/2000/svg"
   xmlns:svg="http://www.w3.org/2000/svg">
  <defs
     id="defs908" />
  <g
     id="layer1"
     transform="translate(-0.20368562,-0.49921177)">
    <path
       class="cls-1"
       d="M 41.23927,0.98909351 C 33.786426,1.340722 28.696919,2.5300953 24.247626,4.2784316 19.642834,6.0729977 15.739897,8.4811626 11.856573,12.378496 7.9732492,16.275829 5.5818946,20.181567 3.7999363,24.793365 2.0754159,29.252463 0.90705652,34.346174 0.57784246,41.80322 0.24862839,49.260267 0.17578122,51.657225 0.21220454,70.678788 0.24862733,89.700354 0.33268303,92.084699 0.69411794,99.557158 1.0499494,107.0086 2.2351197,112.09671 3.9834561,116.5474 c 1.7973682,4.60479 4.2027311,8.50633 8.1014659,12.39105 3.898734,3.88473 7.80167,6.27048 12.424675,8.05524 4.454895,1.72172 9.550007,2.89568 17.005653,3.22209 7.455645,0.32642 9.855405,0.40207 28.871366,0.36564 19.015959,-0.0364 21.410116,-0.12048 28.881172,-0.4749 7.471052,-0.35444 12.532542,-1.54801 16.984642,-3.28794 4.60479,-1.80158 8.50913,-4.20273 12.39105,-8.10287 3.88192,-3.90013 6.27187,-7.80868 8.05243,-12.42327 1.72592,-4.4549 2.89848,-9.55001 3.2221,-17.000052 0.32641,-7.476664 0.40346,-9.863816 0.36704,-28.882575 -0.0364,-19.018761 -0.12189,-21.403111 -0.47631,-28.872765 -0.35443,-7.469655 -1.54101,-12.542353 -3.28794,-16.995847 -1.80017,-4.604793 -4.20274,-8.503527 -8.10006,-12.391053 C 124.5234,8.2626206 120.61206,5.8740685 115.99886,4.0977139 111.54116,2.373193 106.44885,1.1978291 98.993206,0.87561949 91.537563,0.55341042 89.137799,0.47075678 70.114835,0.50718011 51.091874,0.5436029 48.710326,0.62485659 41.23927,0.98909351 M 42.057402,127.61459 c -6.829439,-0.29699 -10.537649,-1.43173 -13.008855,-2.38155 -3.272527,-1.26081 -5.603642,-2.785 -8.066443,-5.22399 -2.4628,-2.43898 -3.975784,-4.77851 -5.253414,-8.04402 -0.959624,-2.47121 -2.115375,-6.17522 -2.434783,-13.004662 -0.347426,-7.381395 -0.420273,-9.597636 -0.460899,-28.298391 -0.04063,-18.700754 0.03082,-20.914193 0.35443,-28.298392 0.29139,-6.823835 1.433132,-10.536248 2.381548,-13.006054 1.260819,-3.276729 2.779406,-5.603642 5.223995,-8.065041 2.444589,-2.4614 4.777105,-3.977186 8.045429,-5.254816 2.468405,-0.963826 6.172412,-2.109771 12.999049,-2.434782 7.387001,-0.350228 9.60044,-0.420273 28.298391,-0.4609 18.697954,-0.04063 20.916997,0.02942 28.306799,0.354431 6.823831,0.296992 10.537651,1.427527 13.004651,2.381547 3.27393,1.26082 5.60364,2.775204 8.06504,5.223996 2.4614,2.448791 3.97859,4.772902 5.25622,8.048231 0.96523,2.461399 2.11117,6.164006 2.43338,12.994846 0.35163,7.387001 0.43148,9.60184 0.4651,28.298392 0.0336,18.696551 -0.0322,20.916996 -0.35583,28.298391 -0.29839,6.829444 -1.43033,10.539054 -2.38155,13.013064 -1.26081,3.27112 -2.7808,5.60364 -5.22679,8.06364 -2.44599,2.46 -4.77571,3.97578 -8.04543,5.25341 -2.4656,0.96243 -6.17381,2.11117 -12.994845,2.43619 -7.387002,0.34742 -9.600443,0.42027 -28.305402,0.4609 -18.704955,0.0406 -20.911389,-0.035 -28.29839,-0.35444 M 99.159917,33.107769 a 8.4054632,8.4054632 0 1 0 8.388653,-8.419472 8.4054632,8.4054632 0 0 0 -8.388653,8.419472 M 34.28375,70.614345 C 34.322973,90.479258 50.455861,106.5463 70.316566,106.50848 90.177275,106.47067 106.25553,90.339169 106.2177,70.474255 106.17988,50.609344 90.042788,34.538099 70.179278,34.577324 50.315769,34.61655 34.245925,50.752237 34.28375,70.614345 m 12.6166,-0.0252 A 23.348976,23.348976 0 1 1 70.295557,93.891892 23.346174,23.346174 0 0 1 46.90035,70.589147"
       id="path6"
       style="fill:#ffffff;fill-opacity:1;stroke-width:0.140091" />
  </g>
</svg>
